<?xml version="1.0" standalone="no"?>
<!DOCTYPE svg PUBLIC "-//W3C//DTD SVG 20010904//EN"
 "http://www.w3.org/TR/2001/REC-SVG-20010904/DTD/svg10.dtd">
<svg version="1.0" xmlns="http://www.w3.org/2000/svg"
 width="200.000000pt" height="200.000000pt" viewBox="0 0 200.000000 200.000000"
 preserveAspectRatio="xMidYMid meet">
<metadata>
Created by potrace 1.14, written by Peter Selinger 2001-2017
</metadata>
<g transform="translate(0.000000,200.000000) scale(0.100000,-0.100000)"
fill="#000000" stroke="none">
<path d="M403 1541 c-3 -11 -13 -21 -24 -24 -22 -6 -16 -37 7 -37 8 0 14 -6
14 -14 0 -28 21 -27 50 3 35 35 37 47 10 56 -11 3 -20 13 -20 21 0 21 -31 17
-37 -5z"/>
<path d="M613 1460 c-3 -10 -14 -22 -24 -25 -25 -8 -24 -32 1 -40 11 -3 20
-13 20 -21 0 -22 37 -17 43 6 3 11 12 20 21 20 23 0 20 27 -4 35 -11 3 -20 12
-20 20 0 22 -31 27 -37 5z"/>
<path d="M403 1331 c-3 -11 -13 -21 -24 -24 -24 -7 -24 -24 0 -32 10 -3 21
-15 24 -25 6 -22 37 -18 37 5 0 7 9 15 20 18 11 3 20 12 20 20 0 8 -9 17 -20
20 -11 3 -20 12 -20 21 0 23 -31 20 -37 -3z"/>
<path d="M697 1339 c-95 -22 -184 -98 -218 -189 -27 -72 -23 -184 10 -248 29
-57 87 -113 147 -143 67 -33 187 -34 256 -2 52 24 142 108 133 123 -12 20 -52
9 -81 -21 -95 -101 -276 -95 -369 14 -141 164 -25 417 191 417 63 0 110 -17
164 -60 51 -40 76 -96 91 -200 14 -105 43 -164 108 -222 150 -135 387 -86 478
100 67 136 9 326 -120 395 -98 52 -203 56 -292 12 -50 -24 -125 -93 -125 -115
0 -23 51 -7 95 29 80 66 180 80 270 37 246 -116 161 -481 -112 -479 -48 1 -72
7 -113 29 -87 47 -121 103 -135 219 -14 117 -31 158 -92 219 -72 73 -187 107
-286 85z"/>
<path d="M726 1197 c-11 -8 -20 -31 -23 -58 -5 -43 -6 -44 -44 -46 -22 0 -46
-6 -53 -12 -23 -19 -25 -58 -4 -81 20 -21 27 -23 69 -20 24 1 27 -3 33 -49 5
-35 13 -54 26 -61 49 -26 88 2 92 68 l3 42 42 0 c32 0 46 5 57 22 9 12 16 28
16 34 0 24 -38 58 -66 60 -16 1 -34 2 -41 3 -8 0 -12 15 -11 36 2 61 -51 95
-96 62z"/>
<path d="M1287 1192 c-36 -39 -7 -102 45 -102 24 0 58 35 58 60 0 27 -35 60
-63 60 -13 0 -31 -8 -40 -18z"/>
<path d="M1193 1089 c-61 -23 -44 -111 22 -111 34 0 58 23 58 56 0 46 -37 71
-80 55z"/>
<path d="M1405 1076 c-30 -30 -31 -46 -7 -75 23 -29 57 -34 83 -12 25 20 29
66 8 86 -29 27 -57 27 -84 1z"/>
<path d="M1287 962 c-53 -58 28 -137 83 -82 24 24 25 48 4 78 -19 27 -64 29
-87 4z"/>
</g>
</svg>
