<?xml version="1.0" standalone="no"?>
<!DOCTYPE svg PUBLIC "-//W3C//DTD SVG 20010904//EN"
 "http://www.w3.org/TR/2001/REC-SVG-20010904/DTD/svg10.dtd">
<svg version="1.0" xmlns="http://www.w3.org/2000/svg"
 width="800.000000pt" height="800.000000pt" viewBox="0 0 800.000000 800.000000"
 preserveAspectRatio="xMidYMid meet">

<g transform="translate(0.000000,800.000000) scale(0.100000,-0.100000)"
fill="#000000" stroke="none">
<path d="M0 4000 l0 -4000 4000 0 4000 0 0 4000 0 4000 -4000 0 -4000 0 0
-4000z m4065 1955 c22 -11 42 -22 45 -26 3 -4 28 -19 55 -33 28 -13 65 -36 84
-50 19 -14 41 -26 48 -26 7 0 36 -16 63 -35 27 -19 54 -35 59 -35 6 0 30 -14
55 -30 24 -17 59 -37 78 -44 18 -8 48 -26 67 -40 19 -14 39 -26 44 -26 5 0 28
-12 51 -28 22 -15 67 -40 98 -56 32 -16 65 -37 74 -48 10 -10 24 -18 32 -18 8
0 39 -16 68 -35 29 -19 56 -35 61 -35 5 0 32 -16 59 -35 27 -19 54 -35 59 -35
6 0 34 -16 64 -35 29 -19 57 -35 61 -35 9 0 73 -40 97 -60 7 -5 17 -10 23 -10
6 0 34 -16 63 -35 28 -19 55 -35 60 -35 4 0 33 -16 63 -35 30 -19 59 -35 64
-35 19 0 72 -55 93 -95 20 -37 21 -56 22 -273 0 -220 -1 -234 -19 -248 -26
-18 -27 -18 -70 11 -20 14 -41 25 -46 25 -6 0 -36 18 -67 40 -32 22 -63 40
-69 40 -6 0 -23 9 -37 20 -14 11 -52 34 -84 51 -84 44 -200 112 -215 127 -6 6
-18 12 -24 12 -7 0 -34 14 -60 32 -50 33 -102 63 -169 97 -22 11 -60 34 -83
50 -23 17 -47 31 -52 31 -6 0 -38 18 -71 40 -33 22 -65 40 -71 40 -6 0 -33 16
-59 35 -27 19 -55 35 -62 35 -6 0 -34 16 -61 35 -27 19 -54 35 -59 35 -5 0
-32 16 -61 35 -29 19 -56 35 -60 35 -4 0 -32 16 -62 35 -30 19 -58 35 -62 35
-4 0 -32 16 -62 35 -47 30 -62 35 -117 35 -54 0 -70 -5 -117 -35 -30 -19 -59
-35 -63 -35 -5 0 -32 -16 -60 -35 -29 -19 -56 -35 -61 -35 -6 0 -33 -16 -61
-35 -28 -19 -54 -35 -58 -35 -5 0 -32 -16 -62 -35 -29 -19 -57 -35 -63 -35 -5
0 -24 -11 -41 -24 -18 -13 -50 -33 -72 -43 -41 -21 -127 -70 -205 -120 -24
-15 -58 -34 -74 -41 -17 -7 -45 -24 -62 -37 -18 -14 -37 -25 -42 -25 -6 0 -32
-15 -60 -32 -27 -18 -64 -41 -82 -51 -17 -9 -34 -26 -37 -37 -3 -11 -9 -20
-13 -20 -14 0 -40 -85 -40 -130 0 -66 43 -140 109 -189 30 -23 59 -41 64 -41
5 0 32 -16 61 -35 29 -19 57 -35 61 -35 4 0 32 -16 61 -35 29 -19 56 -35 61
-35 5 0 32 -16 59 -35 27 -19 53 -35 58 -35 4 0 29 -14 54 -31 25 -17 56 -35
68 -40 13 -4 46 -24 73 -44 28 -19 56 -35 62 -35 7 0 26 -11 43 -24 17 -13 55
-36 84 -52 29 -16 70 -38 91 -50 20 -11 59 -34 85 -52 26 -18 51 -32 56 -32 5
0 26 -12 47 -26 21 -14 60 -37 87 -51 27 -14 56 -31 63 -38 7 -8 23 -17 36
-21 12 -3 43 -22 70 -40 26 -19 51 -34 56 -34 5 0 37 -18 70 -40 33 -22 63
-40 67 -40 4 0 31 -16 60 -36 45 -29 54 -40 54 -65 0 -23 -6 -32 -27 -40 -16
-6 -35 -16 -43 -23 -8 -8 -42 -28 -75 -46 -33 -18 -71 -41 -84 -51 -13 -11
-28 -19 -33 -19 -5 0 -33 -16 -62 -35 -50 -33 -58 -35 -133 -35 -68 0 -84 3
-112 24 -18 13 -47 30 -64 37 -18 7 -44 21 -59 31 -14 10 -54 33 -88 51 -109
57 -136 73 -184 105 -26 18 -52 32 -58 32 -6 0 -25 11 -42 24 -17 13 -54 35
-83 49 -28 15 -54 31 -58 37 -3 5 -33 23 -66 40 -33 16 -72 39 -86 50 -14 11
-30 20 -34 20 -5 0 -33 16 -63 35 -30 19 -59 35 -64 35 -5 0 -20 8 -33 18 -13
11 -46 31 -73 46 -27 15 -65 38 -85 52 -19 13 -40 24 -45 24 -5 0 -31 16 -57
35 -27 19 -55 35 -63 35 -8 0 -27 11 -43 23 -15 13 -53 36 -83 51 -30 15 -62
33 -70 40 -8 7 -40 27 -71 44 -55 31 -98 79 -118 135 -7 18 -11 159 -11 385 0
327 2 360 19 397 10 22 28 50 40 62 27 29 107 83 121 83 6 0 30 13 53 29 24
16 58 36 77 45 19 9 69 36 110 61 41 24 98 56 125 69 28 13 65 36 84 50 19 14
41 26 48 26 8 0 19 5 26 10 27 23 89 60 100 60 11 0 86 46 114 70 7 5 17 10
22 10 5 0 31 13 58 28 134 80 172 102 222 128 29 16 74 41 100 56 25 15 56 31
68 37 11 5 24 14 27 19 3 6 17 13 31 16 15 4 45 20 67 36 23 17 45 30 49 30 5
0 32 15 61 33 98 60 172 69 253 32z m-22 -1155 c23 -11 69 -36 102 -55 33 -20
80 -45 104 -56 25 -12 63 -35 84 -50 22 -16 45 -29 52 -29 6 0 34 -16 61 -35
27 -19 57 -35 66 -35 9 0 19 -4 23 -9 9 -16 95 -71 110 -71 8 0 17 -5 20 -10
3 -6 39 -28 78 -51 40 -22 108 -62 152 -89 44 -27 85 -51 90 -54 6 -2 17 -7
25 -10 8 -4 51 -29 95 -56 44 -27 112 -67 152 -89 39 -23 75 -45 78 -51 3 -5
13 -10 20 -10 8 0 41 -18 72 -40 32 -22 63 -40 69 -40 6 0 23 -9 37 -20 13
-11 47 -31 74 -44 26 -14 62 -36 78 -50 17 -14 34 -26 38 -26 4 0 18 -21 30
-47 21 -47 22 -57 22 -418 0 -414 -2 -426 -66 -483 -20 -18 -52 -39 -70 -47
-19 -9 -47 -24 -64 -35 -16 -11 -48 -29 -70 -40 -22 -12 -74 -41 -115 -65 -41
-24 -101 -57 -133 -74 -32 -17 -70 -40 -84 -51 -14 -11 -32 -20 -40 -20 -8 0
-19 -5 -26 -10 -29 -25 -103 -70 -115 -70 -7 0 -35 -16 -62 -35 -27 -19 -56
-35 -64 -35 -7 0 -24 -8 -37 -19 -13 -10 -51 -33 -84 -50 -33 -18 -94 -52
-135 -77 -41 -24 -91 -51 -110 -60 -19 -9 -54 -29 -78 -45 -24 -16 -48 -29
-54 -29 -6 0 -25 -10 -42 -23 -17 -13 -49 -31 -71 -42 -21 -10 -62 -33 -90
-51 -29 -18 -75 -40 -103 -49 -47 -16 -54 -16 -109 0 -31 9 -70 25 -84 36 -15
10 -32 19 -38 19 -6 0 -11 4 -11 9 0 5 -15 14 -32 22 -18 7 -55 28 -83 46 -27
18 -55 33 -62 33 -6 0 -18 6 -26 14 -7 8 -38 27 -68 42 -30 15 -73 40 -96 56
-23 15 -46 28 -51 28 -6 0 -33 16 -62 35 -29 19 -56 35 -61 35 -5 0 -32 16
-59 35 -27 19 -54 35 -60 35 -5 0 -34 16 -64 35 -30 19 -58 35 -61 35 -4 0
-30 15 -58 33 -48 32 -90 56 -193 112 -22 13 -59 35 -82 49 -23 14 -45 26 -48
26 -4 0 -31 16 -60 35 -29 19 -57 35 -62 35 -5 0 -33 16 -61 35 -28 19 -55 35
-61 35 -6 0 -33 16 -60 35 -27 19 -56 35 -64 35 -8 0 -32 26 -53 57 l-38 58
-3 223 c-3 191 -1 227 13 248 8 13 21 24 28 24 18 0 122 -55 161 -85 18 -14
38 -25 44 -25 6 0 36 -16 66 -35 30 -19 59 -35 64 -35 5 0 20 -8 33 -19 13
-10 51 -33 84 -51 33 -18 71 -41 84 -51 13 -11 28 -19 33 -19 5 0 33 -16 62
-35 29 -19 59 -35 65 -35 7 0 27 -11 44 -24 18 -13 51 -33 74 -45 23 -11 62
-34 86 -51 25 -16 48 -30 51 -30 4 0 32 -16 62 -35 30 -19 57 -35 60 -35 3 0
26 -14 51 -30 24 -17 59 -37 76 -45 18 -8 65 -34 104 -57 168 -99 254 -148
258 -148 3 0 27 -15 53 -33 26 -19 71 -40 100 -47 64 -15 120 -3 197 44 62 38
95 57 160 92 28 15 61 35 75 44 14 10 53 33 85 51 33 17 67 38 76 45 8 8 21
14 28 14 7 0 27 11 45 25 17 13 45 30 62 37 16 7 50 26 74 41 62 40 155 94
220 130 30 16 62 35 70 41 8 6 37 22 64 36 28 14 71 45 96 70 38 37 49 56 60
102 24 107 -14 204 -102 256 -24 14 -49 32 -56 39 -7 7 -18 13 -23 13 -12 0
-132 68 -194 110 -22 14 -54 32 -70 39 -17 6 -44 23 -59 36 -16 14 -34 25 -40
25 -6 0 -31 14 -56 30 -25 17 -63 39 -85 50 -22 11 -76 42 -120 69 -44 27
-102 61 -129 75 -26 15 -60 35 -73 46 -14 11 -30 20 -36 20 -5 0 -34 16 -63
35 -29 19 -55 35 -59 35 -4 0 -19 8 -33 19 -15 10 -58 36 -97 57 -38 21 -76
44 -83 51 -7 7 -19 13 -26 13 -7 0 -25 9 -39 20 -13 11 -49 32 -78 46 -30 15
-56 30 -59 34 -3 4 -32 22 -65 40 -75 41 -105 68 -105 95 0 21 31 55 52 55 6
0 25 11 42 24 17 13 54 35 81 50 28 15 77 43 110 62 143 82 175 89 248 54z"/>
</g>
</svg>
